<?xml version="1.0" encoding="UTF-8" standalone="no"?>
<svg
   viewBox="0 0 2556 2556.0001"
   version="1.1"
   id="svg826"
   sodipodi:docname="favicon.svg"
   inkscape:version="1.1.2 (b8e25be8, 2022-02-05)"
   width="2556"
   height="2556"
   inkscape:export-filename="/Users/timhunter/Development/Projects/health-records-frontend-vue/public/favicon.ico"
   inkscape:export-xdpi="1.201878"
   inkscape:export-ydpi="1.201878"
   xmlns:inkscape="http://www.inkscape.org/namespaces/inkscape"
   xmlns:sodipodi="http://sodipodi.sourceforge.net/DTD/sodipodi-0.dtd"
   xmlns="http://www.w3.org/2000/svg"
   xmlns:svg="http://www.w3.org/2000/svg">
  <defs
     id="defs830">
    <rect
       x="689.31293"
       y="264.90125"
       width="136.72324"
       height="91.148819"
       id="rect4782" />
  </defs>
  <sodipodi:namedview
     id="namedview828"
     pagecolor="#ffffff"
     bordercolor="#666666"
     borderopacity="1.0"
     inkscape:pageshadow="2"
     inkscape:pageopacity="0.0"
     inkscape:pagecheckerboard="0"
     showgrid="false"
     inkscape:zoom="0.29857056"
     inkscape:cx="849.04554"
     inkscape:cy="1411.7266"
     inkscape:window-width="1792"
     inkscape:window-height="1067"
     inkscape:window-x="0"
     inkscape:window-y="25"
     inkscape:window-maximized="1"
     inkscape:current-layer="svg826"
     fit-margin-top="32"
     lock-margins="false"
     fit-margin-right="32"
     fit-margin-bottom="0"
     fit-margin-left="32"
     inkscape:snap-bbox="false"
     height="2556px" />
  <!--! Font Awesome Pro 6.3.0 by @fontawesome - https://fontawesome.com License - https://fontawesome.com/license (Commercial License) Copyright 2023 Fonticons, Inc. -->
  <text
     xml:space="preserve"
     id="text4780"
     style="font-style:normal;font-variant:normal;font-weight:normal;font-stretch:normal;font-size:16px;line-height:1;font-family:'System Font';-inkscape-font-specification:'System Font';white-space:pre;shape-inside:url(#rect4782)"
     transform="translate(-511.99999,2044)" />
  <path
     d="M 683.99997,1608 V 552 c 0,-145.6125 118.38749,-264 263.99999,-264 H 2004 c 145.6124,0 264,118.3875 264,264 v 814.6875 c 0,70.125 -27.6376,137.3625 -77.1376,186.8625 L 1949.55,1794.8625 c -49.5,49.5 -116.7375,77.1375 -186.8625,77.1375 H 947.99996 c -145.6125,0 -263.99999,-118.3875 -263.99999,-264 z M 1410,684 c -36.3,0 -66,29.6999 -66,66 v 198 h -198 c -36.3,0 -65.9999,29.6999 -65.9999,66 v 131.9999 C 1080.0001,1182.3 1109.7,1212 1146,1212 h 198 v 198 c 0,36.3 29.7,66 66,66 h 132 c 36.2999,0 66,-29.7 66,-66 v -198 h 198 c 36.3,0 66,-29.7 66,-66.0001 V 1014 c 0,-36.3001 -29.7,-66 -66,-66 H 1608 V 750 c 0,-36.3001 -29.7001,-66 -66,-66 z m 99,1386 c 54.8624,0 99,44.1375 99,99 0,54.8625 -44.1376,99 -99,99 H 848.99996 c -309.7875,0 -561.00001,-251.2125 -561.00001,-561 V 782.9999 c 0,-54.8625 44.13751,-98.9999 99.00001,-98.9999 54.8625,0 99,44.1374 99,98.9999 V 1707 c 0,200.475 162.525,363 363,363 z"
     id="path824"
     style="stroke-width:0.999997" />
</svg>
