<?xml version="1.0" encoding="UTF-8" standalone="no"?>
<svg
   viewBox="0 0 2180.3535 2556.0003"
   version="1.1"
   id="svg826"
   sodipodi:docname="logo.svg"
   inkscape:version="1.1.2 (b8e25be8, 2022-02-05)"
   width="2180.3535"
   height="2556.0002"
   inkscape:export-filename="/Users/timhunter/Development/Projects/health-records-frontend-vue/public/logo.png"
   inkscape:export-xdpi="1200"
   inkscape:export-ydpi="1200"
   xmlns:inkscape="http://www.inkscape.org/namespaces/inkscape"
   xmlns:sodipodi="http://sodipodi.sourceforge.net/DTD/sodipodi-0.dtd"
   xmlns="http://www.w3.org/2000/svg"
   xmlns:svg="http://www.w3.org/2000/svg">
  <defs
     id="defs830">
    <rect
       x="689.31293"
       y="264.90125"
       width="136.72324"
       height="91.148819"
       id="rect4782" />
  </defs>
  <sodipodi:namedview
     id="namedview828"
     pagecolor="#ffffff"
     bordercolor="#666666"
     borderopacity="1.0"
     inkscape:pageshadow="2"
     inkscape:pageopacity="0.0"
     inkscape:pagecheckerboard="0"
     showgrid="false"
     inkscape:zoom="0.29857056"
     inkscape:cx="849.04554"
     inkscape:cy="1411.7266"
     inkscape:window-width="1792"
     inkscape:window-height="1067"
     inkscape:window-x="0"
     inkscape:window-y="25"
     inkscape:window-maximized="1"
     inkscape:current-layer="svg826"
     fit-margin-top="32"
     lock-margins="false"
     fit-margin-right="32"
     fit-margin-bottom="0"
     fit-margin-left="32"
     inkscape:snap-bbox="false" />
  <!--! Font Awesome Pro 6.3.0 by @fontawesome - https://fontawesome.com License - https://fontawesome.com/license (Commercial License) Copyright 2023 Fonticons, Inc. -->
  <text
     xml:space="preserve"
     style="font-size:518.208px;line-height:1;font-family:Arial;-inkscape-font-specification:Arial;stroke-width:1"
     x="-6.4607444"
     y="2446.9438"
     id="text1484"><tspan
       sodipodi:role="line"
       id="tspan1482"
       x="-6.4607444"
       y="2446.9438"
       style="font-size:518.208px;stroke-width:1">MyHealth</tspan></text>
  <text
     xml:space="preserve"
     id="text4780"
     style="font-style:normal;font-variant:normal;font-weight:normal;font-stretch:normal;font-size:16px;line-height:1;font-family:'System Font';-inkscape-font-specification:'System Font';white-space:pre;shape-inside:url(#rect4782)"
     transform="translate(-511.99999,2044)" />
  <path
     d="M 428.00002,1352 V 296 c 0,-145.6125 118.38749,-264 263.99999,-264 H 1748.0001 c 145.6124,0 264,118.3875 264,264 v 814.6875 c 0,70.125 -27.6376,137.3625 -77.1376,186.8625 l -241.3124,241.3125 c -49.5,49.5 -116.7375,77.1375 -186.8626,77.1375 H 692.00001 c -145.6125,0 -263.99999,-118.3875 -263.99999,-264 z M 1154.0001,428 c -36.3001,0 -66,29.6999 -66,66 V 692 H 890.00001 c -36.3,0 -65.9999,29.6999 -65.9999,66 v 131.9999 c 0,36.3001 29.6999,66.0001 65.9999,66.0001 h 198.00009 v 198 c 0,36.3 29.6999,66 66,66 H 1286 c 36.3,0 66,-29.7 66,-66 V 956 h 198 c 36.3001,0 66,-29.7 66,-66.0001 V 758 c 0,-36.3001 -29.6999,-66 -66,-66 H 1352 V 494 c 0,-36.3001 -29.7,-66 -66,-66 z M 1253,1814 c 54.8625,0 99,44.1375 99,99 0,54.8625 -44.1375,99 -99,99 H 593.00001 C 283.21251,2012 32,1760.7875 32,1451 V 526.9999 C 32,472.1374 76.13751,428 131.00001,428 c 54.8625,0 99,44.1374 99,98.9999 V 1451 c 0,200.475 162.525,363 363,363 z"
     id="path824"
     style="stroke-width:0.999997" />
</svg>
